<?xml version="1.0" encoding="UTF-8"?>
<svg xmlns="http://www.w3.org/2000/svg" xmlns:xlink="http://www.w3.org/1999/xlink" viewBox="0 0 20 20" width="20px" height="20px">
<g id="surface16417487">
<path style=" stroke:none;fill-rule:nonzero;fill:rgb(96.862745%,58.039218%,12.54902%);fill-opacity:1;" d="M 10 1.667969 C 5.398438 1.667969 1.667969 5.398438 1.667969 10 C 1.667969 14.601562 5.398438 18.332031 10 18.332031 C 14.601562 18.332031 18.332031 14.601562 18.332031 10 C 18.332031 5.398438 14.601562 1.667969 10 1.667969 Z M 10 1.667969 "/>
<path style=" stroke:none;fill-rule:nonzero;fill:rgb(100%,100%,100%);fill-opacity:1;" d="M 14.144531 6.25 L 12.585938 14.21875 C 12.585938 14.21875 12.519531 14.582031 12.066406 14.582031 C 11.828125 14.582031 11.703125 14.46875 11.703125 14.46875 L 8.320312 11.664062 L 6.667969 10.828125 L 4.542969 10.265625 C 4.542969 10.265625 4.167969 10.15625 4.167969 9.84375 C 4.167969 9.582031 4.554688 9.460938 4.554688 9.460938 L 13.4375 5.929688 C 13.4375 5.929688 13.707031 5.832031 13.90625 5.832031 C 14.027344 5.832031 14.167969 5.886719 14.167969 6.042969 C 14.167969 6.144531 14.144531 6.25 14.144531 6.25 Z M 14.144531 6.25 "/>
<path style=" stroke:none;fill-rule:nonzero;fill:rgb(69.01961%,74.509805%,77.254903%);fill-opacity:1;" d="M 9.582031 12.710938 L 8.15625 14.117188 C 8.15625 14.117188 8.09375 14.164062 8.011719 14.167969 C 7.980469 14.167969 7.953125 14.164062 7.917969 14.148438 L 8.320312 11.664062 Z M 9.582031 12.710938 "/>
<path style=" stroke:none;fill-rule:nonzero;fill:rgb(81.176472%,84.705883%,86.274511%);fill-opacity:1;" d="M 12.457031 7.582031 C 12.386719 7.488281 12.257812 7.472656 12.164062 7.542969 L 6.667969 10.832031 C 6.667969 10.832031 7.542969 13.289062 7.679688 13.714844 C 7.8125 14.140625 7.917969 14.148438 7.917969 14.148438 L 8.320312 11.664062 L 12.417969 7.875 C 12.507812 7.804688 12.527344 7.671875 12.457031 7.582031 Z M 12.457031 7.582031 "/>
</g>
</svg>
